<svg xmlns="http://www.w3.org/2000/svg" width="376" height="572" viewBox="0 0 376 572">
  <g id="full-panel" data-name="Grupo 800" transform="translate(-746 -1135)">
    <g id="Grupo_798" data-name="Grupo 798" transform="translate(-2270 447)">
      <rect id="Retângulo_138" data-name="Retângulo 138" width="82" height="82" rx="8" transform="translate(3310 1080)" fill="#f1f4f6"/>
      <g id="Grupo_785" data-name="Grupo 785" transform="translate(2816.027 952)">
        <path id="Caminho_120" data-name="Caminho 120" d="M534.428,181.046c2.5,2.5,4.939,4.93,7.376,7.368.875.876,1.031,1.93.391,2.575a1.908,1.908,0,0,1-2.623-.325c-2.239-2.227-4.472-4.46-6.676-6.722a1.006,1.006,0,0,0-1.553-.15,11.321,11.321,0,0,1-16.361-14.211,1.726,1.726,0,0,0,0-1.7c-1.723-3.5-1.236-8.32,1.413-10.631a7.869,7.869,0,0,0,2.468-4.3,9.258,9.258,0,0,1,3.688-5.718,6.713,6.713,0,0,1,3.287-1.155c6.089-.11,12.181-.059,18.272-.05a5.976,5.976,0,0,1,4.66,2.412,14.453,14.453,0,0,1,2.844,6.388,2.6,2.6,0,0,0,.94,1.424c3.606,2.585,4.6,9.065,1.81,12.759a4.052,4.052,0,0,0-.921,2.875c.071,1.149.016,2.305.016,3.514H546.67v-3.213H536.592A12.032,12.032,0,0,1,534.428,181.046Zm-9.08,1.912a8.852,8.852,0,1,0-8.841-8.9A8.944,8.944,0,0,0,525.348,182.958Zm23.975-28.06a11.545,11.545,0,0,0-2.044-4.7,4.832,4.832,0,0,0-4.186-2.054c-5.5.065-11.011.042-16.517.01a4.363,4.363,0,0,0-3.227,1.286,10.484,10.484,0,0,0-2.717,5.453Zm1.925,8.687a2.746,2.746,0,0,0-2.661-2.735,2.875,2.875,0,0,0-2.649,2.681,2.764,2.764,0,0,0,2.7,2.7A2.679,2.679,0,0,0,551.249,163.584Zm-24.891-1.166.074.425a30.584,30.584,0,0,0,3.513.439c4.051.055,8.1.021,12.155.021a3.048,3.048,0,0,0,.862-.026,2.473,2.473,0,0,0,.644-.456,4.476,4.476,0,0,0-.615-.637c-.124-.088-.351-.038-.531-.038-4.992,0-9.984-.007-14.977.011A5.093,5.093,0,0,0,526.358,162.418Zm5.384,2.184a2.836,2.836,0,0,0,2.507,1.217c.932-.089,1.88-.018,2.82-.019,1.881,0,3.763.024,5.643-.028.306-.009.6-.358.9-.55-.236-.207-.47-.591-.708-.594C539.232,164.591,535.557,164.6,531.742,164.6Zm-7.938-1.947a2.609,2.609,0,0,0-2.422-1.793,2.507,2.507,0,0,0-2.4,1.4,2.062,2.062,0,0,0-.094,2.279Z" transform="translate(0)" fill="#b6c7d1"/>
      </g>
    </g>
    <g id="Grupo_797" data-name="Grupo 797" transform="translate(-2738 447)">
      <rect id="Retângulo_140" data-name="Retângulo 140" width="82" height="82" rx="8" transform="translate(3582 1080)" fill="#f1f4f6"/>
      <g id="Grupo_787" data-name="Grupo 787" transform="translate(3111.169 554.966)">
        <path id="Caminho_122" data-name="Caminho 122" d="M530.284,588.352h-6.742V585.18H500.125v3.139h-6.809c0-1.353-.029-2.716.011-4.078a2.834,2.834,0,0,0-.706-2.061C489.967,579.006,490,571.755,494.5,569a2.032,2.032,0,0,0,.691-1.233c.613-2.858,1.631-5.491,3.929-7.444a5.9,5.9,0,0,1,4.007-1.4c2.277.019,4.554,0,6.95,0,0-2.841.007-5.552,0-8.265a7.386,7.386,0,0,1,1.371-4.384,7.11,7.11,0,0,1,5.866-3.186c2.754-.075,5.513-.067,8.268-.007a7.464,7.464,0,0,1,7.209,7.391c.048,2.687.083,5.379-.024,8.063-.132,3.3-1.917,5.516-4.95,6.847.233.976.436,1.96.718,2.921a1.4,1.4,0,0,0,.6.7c4.559,2.778,4.459,10.254,1.754,13.388a2.909,2.909,0,0,0-.576,1.642C530.23,585.434,530.284,586.844,530.284,588.352Zm-8.946-43.174v.007c-1.34,0-2.687-.079-4.02.017a5.385,5.385,0,0,0-5.1,5.023,72.444,72.444,0,0,0-.015,8.266,5.439,5.439,0,0,0,5.561,5.277c2.427.066,4.86.079,7.286,0a5.62,5.62,0,0,0,5.686-5.894c.025-2.324.029-4.648,0-6.972a5.578,5.578,0,0,0-5.269-5.7C524.1,545.089,522.714,545.178,521.338,545.178Zm-23.929,22.665h28.612c-.132-1.906-.267-2.039-1.989-2.037-2.067,0-4.134.005-6.2,0a7.388,7.388,0,0,1-6.85-4.01,1.249,1.249,0,0,0-1.3-.706c-2.175.019-4.352.026-6.527-.012a4.039,4.039,0,0,0-3.1,1.318A10.746,10.746,0,0,0,497.409,567.843Zm-1.964,8.558a2.734,2.734,0,1,0,5.466.137,2.726,2.726,0,0,0-2.733-2.759A2.639,2.639,0,0,0,495.445,576.4Zm32.7.08a2.745,2.745,0,0,0-2.583-2.7,2.8,2.8,0,0,0-2.8,2.622,2.9,2.9,0,0,0,2.677,2.779A2.771,2.771,0,0,0,528.143,576.481Zm-16.453,2.194v-.016c2.54,0,5.08.023,7.619-.025.377-.007.747-.346,1.121-.531-.359-.2-.717-.569-1.078-.572q-7.564-.058-15.129,0c-.364,0-.726.357-1.088.547.385.2.766.565,1.155.573C506.756,578.7,509.224,578.675,511.691,578.675Zm.117-2.455v0c2.534,0,5.068.021,7.6-.025.338-.006.67-.353,1.006-.542-.34-.186-.678-.533-1.019-.535q-7.6-.054-15.2-.006c-.347,0-.693.328-1.039.5.35.2.7.576,1.052.583C506.739,576.244,509.273,576.22,511.807,576.22Z" transform="translate(0)" fill="#b6c7d1"/>
        <path id="Caminho_123" data-name="Caminho 123" d="M600.731,584.073c2.554-2.559,4.97-4.963,7.362-7.389.595-.6,1.255-1.048,1.937-.334.62.65.362,1.37-.266,1.992-2.606,2.576-5.19,5.174-7.789,7.757a1.552,1.552,0,0,1-2.443.012q-1.97-1.955-3.922-3.928c-.561-.566-1.1-1.254-.371-1.955s1.432-.3,2.053.351C598.387,581.731,599.519,582.846,600.731,584.073Z" transform="translate(-81.346 -25.741)" fill="#b6c7d1"/>
      </g>
    </g>
    <g id="Grupo_799" data-name="Grupo 799" transform="translate(-2504 545)">
      <rect id="Retângulo_139" data-name="Retângulo 139" width="82" height="82" rx="8" transform="translate(3446 1080)" fill="#f1f4f6"/>
      <g id="Grupo_786" data-name="Grupo 786" transform="translate(2602.118 944.843)">
        <path id="Caminho_121" data-name="Caminho 121" d="M901.716,188.493a3.191,3.191,0,0,1-.39.9c-1.085,1.12-2.149,2.272-3.33,3.284-.713.611-1.448.257-2.135-.344a4.441,4.441,0,0,0-7.246,1.778,4.39,4.39,0,0,0-.257,1.379c-.034,1.058-.505,1.63-1.6,1.626-1.308,0-2.616.005-3.924-.009-1.018-.011-1.472-.518-1.533-1.559a4.487,4.487,0,0,0-3.828-4.49,4.556,4.556,0,0,0-3.73,1.157c-1.074.908-1.463.92-2.522-.03a29.652,29.652,0,0,1-2.309-2.3c-1.135-1.271-1.116-1.589-.058-2.858a4.212,4.212,0,0,0,.375-5.23,4.506,4.506,0,0,0-3.608-2.143c-1.342-.1-1.639-.4-1.7-1.737-.053-1.155-.054-2.315,0-3.47.074-1.576.227-1.7,1.782-1.851a4.675,4.675,0,0,0,4.3-3.842,3.978,3.978,0,0,0-.987-3.433c-1.131-1.309-1.191-1.6-.079-2.856a27.016,27.016,0,0,1,2.793-2.733c.771-.651,1.513-.311,2.229.312a4.457,4.457,0,0,0,7.392-2.327c.009-.035.024-.069.031-.1.526-2.437.526-2.448,3.073-2.457.8,0,1.6.061,2.4.11,1.3.08,1.561.344,1.658,1.639a4.548,4.548,0,0,0,3.9,4.429,4.231,4.231,0,0,0,3.358-.967c1.432-1.186,1.613-1.244,3.043,0a25.031,25.031,0,0,1,2.569,2.658c.684.8.265,1.54-.324,2.23a4.332,4.332,0,0,0,1.258,6.9,6.554,6.554,0,0,0,2.082.551c.926.132,1.494.512,1.488,1.516-.008,1.374.011,2.749-.012,4.123-.016.977-.55,1.428-1.531,1.434a4.375,4.375,0,0,0-4.21,2.752,4.123,4.123,0,0,0,.889,4.819A6.342,6.342,0,0,1,901.716,188.493Zm-5.361-5.2a13.23,13.23,0,0,0-2.247-17.281c-5.764-5.009-13.4-4.791-18.627.29A13.532,13.532,0,0,0,892.2,187.414c-1.927-1.934-3.832-3.88-5.792-5.769-.241-.232-.777-.215-1.177-.217a19.07,19.07,0,0,1-3.992,0c-3.866-.873-6.041-4.366-5.467-8.514.061-.441.355-1.121.659-1.193a1.907,1.907,0,0,1,1.436.451c.939.8,1.771,1.723,2.655,2.588.6.588,2.824.63,3.314.075a3.337,3.337,0,0,0-.125-3.329c-.9-.9-1.836-1.769-2.682-2.717a1.637,1.637,0,0,1-.4-1.232c.06-.283.595-.594.963-.666a7.438,7.438,0,0,1,8.812,9.33,1.666,1.666,0,0,0,.277,1.339C892.513,179.487,894.411,181.344,896.355,183.292Z" transform="translate(0 0)" fill="#b6c7d1"/>
      </g>
    </g>
    <g id="Grupo_769" data-name="Grupo 769" transform="translate(784 -300)">
      <rect id="Retângulo_123" data-name="Retângulo 123" width="82" height="82" rx="8" transform="translate(60 1435)" fill="#0077be"/>
      <g id="Grupo_586" data-name="Grupo 586" transform="translate(80.706 1455.621)">
        <path id="Caminho_97" data-name="Caminho 97" d="M41,20.5A20.5,20.5,0,1,0,20.5,41,20.492,20.492,0,0,0,41,20.5M4.28,11.586h9.976L6.05,31.957H35.078A18.526,18.526,0,0,1,4.28,11.586m28.095,8.85v-2.51h-5.02v-6.34H36.72a18.532,18.532,0,0,1,0,17.829H13.034L21.24,9.075H5.954a18.549,18.549,0,0,1,29.157,0H21.819v18.5h5.535V20.436Z" fill="#fff"/>
      </g>
    </g>
    <g id="Grupo_771" data-name="Grupo 771" transform="translate(98 -104)">
      <rect id="Retângulo_125" data-name="Retângulo 125" width="82" height="82" rx="8" transform="translate(648 1435)" fill="#2954a2"/>
      <g id="Sachs" transform="translate(661.667 1460.967)">
        <path id="Caminho_120-2" data-name="Caminho 120" d="M407.243,727.375c0-.405-.736-1.143-2.626-1.143a2.856,2.856,0,1,0,0,5.7c1.89,0,2.626-.738,2.626-1.142h2.577c0,.523-.9,2.5-5.2,2.5-4.021,0-5.53-2.2-5.53-4.212s1.511-4.214,5.53-4.214c4.3,0,5.2,1.98,5.2,2.5Z" transform="translate(-377.505 -703.268)" fill="#fff"/>
        <path id="Caminho_121-2" data-name="Caminho 121" d="M411.763,725.134h2.324v3.285h5.032v-3.285h2.325v8.088h-2.325v-3.285h-5.032v3.285h-2.324v-8.088Z" transform="translate(-378.374 -703.285)" fill="#fff"/>
        <path id="Caminho_122-2" data-name="Caminho 122" d="M381.27,733.3c-1.719,0-5.354-.387-5.354-2.355h2.693c0,.739,1.614,1.016,2.492,1.016,2.488,0,2.951-1.311,2.187-1.636-1.473-.651-7.048-1.225-7.048-3.17,0-1.726,2.75-2.28,4.828-2.28,2.743,0,5.239.611,5.239,2.19h-2.683c0-.683-1.575-.841-2.523-.841-2.456,0-2.437.877-1.839,1.168.759.373,2.673.708,4.362,1.225,1.882.534,3.019,1.09,3.019,2.321,0,1.287-1.791,2.362-5.373,2.362Z" transform="translate(-375.916 -703.268)" fill="#fff"/>
        <path id="Caminho_123-2" data-name="Caminho 123" d="M428.445,733.3c-1.72,0-5.355-.387-5.355-2.355h2.694c0,.739,1.613,1.016,2.492,1.016,2.487,0,2.951-1.311,2.186-1.636-1.473-.651-7.047-1.225-7.047-3.17,0-1.726,2.749-2.28,4.828-2.28,2.742,0,5.238.611,5.238,2.19H430.8c0-.683-1.574-.841-2.523-.841-2.455,0-2.436.877-1.838,1.168.758.373,2.672.708,4.361,1.225,1.882.534,3.019,1.09,3.019,2.321,0,1.287-1.791,2.362-5.372,2.362Z" transform="translate(-379.151 -703.268)" fill="#fff"/>
        <path id="Caminho_124" data-name="Caminho 124" d="M393.131,727.114l-1.819,3.581h3.637l-1.818-3.581Zm-1.162-1.98h2.324l4.538,8.088h-2.6l-.6-1.179h-5.006l-.6,1.179h-2.6l4.54-8.088Z" transform="translate(-376.705 -703.285)" fill="#fff" fill-rule="evenodd"/>
        <path id="Caminho_125" data-name="Caminho 125" d="M402.366,710.283a2.7,2.7,0,1,1,2.7,2.706,2.7,2.7,0,0,1-2.7-2.706Z" transform="translate(-377.73 -702.161)" fill="#fff"/>
        <path id="Caminho_126" data-name="Caminho 126" d="M400.035,718.438c-.358.01-.37-.128,0-.207,5.743-1.232,9.7-3.822,9.7-6.82a4.29,4.29,0,0,0-1.343-2.942c-.109-.113.016-.242.193-.193,3.154.867,5.568,2.149,6.772,3.653a1.279,1.279,0,0,1,.025,1.638c-2.125,2.7-8.142,4.689-15.347,4.871Z" transform="translate(-377.551 -702.205)" fill="#fff"/>
        <path id="Caminho_127" data-name="Caminho 127" d="M409.317,701.791c.358-.008.372.126,0,.207-5.744,1.232-9.7,3.823-9.7,6.822a4.3,4.3,0,0,0,1.344,2.943c.109.112-.016.241-.193.193-3.155-.869-5.567-2.15-6.772-3.656a1.278,1.278,0,0,1-.025-1.636c2.125-2.7,8.143-4.69,15.347-4.872Z" transform="translate(-377.134 -701.79)" fill="#fff"/>
      </g>
    </g>
    <g id="Grupo_777" data-name="Grupo 777" transform="translate(196 -329)">
      <rect id="Retângulo_126" data-name="Retângulo 126" width="82" height="82" rx="8" transform="translate(844 1758)" fill="#00acec"/>
      <path id="Caminho_434" data-name="Caminho 434" d="M14.55,80.833l1.471,6.882h.1l1.313-6.882h3.782L18.91,91.183H12.974l-.946-6.357H11.87L10.5,91.183H4.988L2.834,80.833H6.512l1.208,6.62h.1L9.3,80.833Zm10.4,8.931-.42,1.419H20.486l3.152-10.35h5.726l3.152,10.35H28.209l-.368-1.419Zm1.576-5.358h-.105l-.893,3.257h1.786Zm6.252-3.573h7.2c1.734,0,3.257-.053,3.257,2.627,0,2-1.051,2.154-1.051,2.154v.105a2.892,2.892,0,0,1,1.208,2.574c0,3.047-1.839,2.89-3.362,2.89h-7.25Zm4.36,8.2h.578c.893,0,1.261-.21,1.261-1.1s-.316-1.051-1.208-1.051h-.631v2.154Zm0-4.2h.578c.893,0,1.261-.21,1.261-1.051s-.316-.946-1.208-.946h-.631v2ZM54.686,87.4v.42a4.214,4.214,0,0,1-.841,2.89c-.682.63-2.627.63-3.94.63-3.362,0-5.569.368-5.569-3.94V84.51c0-3.835,1-3.94,5.569-3.94,3.2,0,4.675,0,4.78,3.1v.525H50.641v-.368c-.053-.893-.315-1.208-1.051-1.208-1.051,0-1.051.63-1.051,2.469v1.628c0,1.576.053,2.364,1.051,2.364.788,0,1.1-.316,1.1-1.366V87.4h3.993Zm1,.053V84.51c0-3.677,1.156-3.94,5.464-3.94,3.783,0,5.464.21,5.464,3.94v2.942c0,3.73-1.628,3.887-5.464,3.887S55.685,91.183,55.685,87.453Zm6.777-.316V84.825c0-1.523-.315-2.154-1.313-2.154s-1.314.631-1.366,2.154v2.312c.053,1.576.368,2.049,1.366,2.049S62.461,88.713,62.461,87.137Z" transform="translate(850.277 1712.963)" fill="#fff" fill-rule="evenodd"/>
    </g>
    <g id="Grupo_778" data-name="Grupo 778" transform="translate(-98 -230.885)">
      <g id="Grupo_773" data-name="Grupo 773" transform="translate(1040 1757.885)">
        <g id="Grupo_768" data-name="Grupo 768" transform="translate(0 0)">
          <rect id="Retângulo_126-2" data-name="Retângulo 126" width="82" height="82" rx="8" fill="red"/>
          <g id="TRW" transform="translate(15.923 33.458)">
            <path id="Caminho_110" data-name="Caminho 110" d="M446.193,721.978H460.5l1.436-3.871H447.6l-1.406,3.871Z" transform="translate(-446.193 -718.107)" fill="#fff" fill-rule="evenodd"/>
            <path id="Caminho_111" data-name="Caminho 111" d="M461.859,721.978h6.422c1.926,0,2.658.061,2.658,1.26,0,1.721-1.649,1.721-3.731,1.721h-1.222l4.036,8.417h5.259l-2.936-5.683a5.134,5.134,0,0,0,3.361-5.039,4.271,4.271,0,0,0-1.68-3.688c-.889-.614-1.653-.86-4.738-.86h-6.056l-1.376,3.871Z" transform="translate(-446.666 -718.107)" fill="#fff" fill-rule="evenodd"/>
            <path id="Caminho_112" data-name="Caminho 112" d="M486,733.555h5.147l3.468-8.418H486v8.418Z" transform="translate(-447.394 -718.286)" fill="#fff" fill-rule="evenodd"/>
            <path id="Caminho_113" data-name="Caminho 113" d="M476.992,733.555h5.145l3.318-8.418h-8.463v8.419Z" transform="translate(-447.123 -718.285)" fill="#fff" fill-rule="evenodd"/>
            <path id="Caminho_114" data-name="Caminho 114" d="M447.044,733.555h5.105l3.027-8.418h-5.105l-3.027,8.418Z" transform="translate(-446.219 -718.286)" fill="#fff" fill-rule="evenodd"/>
            <path id="Caminho_115" data-name="Caminho 115" d="M457.667,733.555h4.955l3-8.418h-4.892l-3.058,8.418Z" transform="translate(-446.539 -718.286)" fill="#fff" fill-rule="evenodd"/>
            <path id="Caminho_116" data-name="Caminho 116" d="M483.328,721.978h6.755v-3.871h-5.41l-1.345,3.871Z" transform="translate(-447.314 -718.107)" fill="#fff" fill-rule="evenodd"/>
            <path id="Caminho_117" data-name="Caminho 117" d="M491.933,721.978h4.094l1.59-3.871h-4.277l-1.407,3.871Z" transform="translate(-447.573 -718.107)" fill="#fff" fill-rule="evenodd"/>
            <path id="Caminho_118" data-name="Caminho 118" d="M476.992,721.978h4.583v-3.871h-4.583v3.871Z" transform="translate(-447.123 -718.107)" fill="#fff" fill-rule="evenodd"/>
          </g>
        </g>
      </g>
    </g>
    <g id="Grupo_776" data-name="Grupo 776" transform="translate(588 -721)">
      <rect id="Retângulo_124" data-name="Retângulo 124" width="82" height="82" rx="8" transform="translate(452 1954)" fill="#295ba7"/>
      <g id="Grupo_774" data-name="Grupo 774" transform="translate(468.4 1971.311)">
        <g id="Lemförder" transform="translate(0 39.577)">
          <path id="Caminho_421" data-name="Caminho 421" d="M271.912,443.748V449.1a19.047,19.047,0,0,0,2.021-.122,1.628,1.628,0,0,0,0,.755h-3.345v-5.979c.22.017.44.044.661.044s.441-.026.663-.044Zm2.849,0v5.979h3.363a1.628,1.628,0,0,1,0-.755,16.318,16.318,0,0,1-2.039.122v-2.23H277a8.119,8.119,0,0,1,1.086.079,1.608,1.608,0,0,1,0-.755,8.123,8.123,0,0,1-1.086.08h-.918V444.38a12.5,12.5,0,0,1,2.039.123,1.631,1.631,0,0,1,0-.755Zm7.88,4.127c-.7-1.378-1.4-2.748-2.03-4.127a2.736,2.736,0,0,1-.371.044,2.572,2.572,0,0,1-.362-.044c-.3,2.221-.583,4.26-.9,6.024a3.1,3.1,0,0,1,.406-.045,3.243,3.243,0,0,1,.415.045,36.441,36.441,0,0,1,.37-4c.671,1.378,1.369,2.739,1.934,3.95a.858.858,0,0,1,.336,0c.626-1.361,1.288-2.7,1.96-4.048.132,1.353.309,2.7.379,4.093.247-.018.468-.045.715-.045s.485.027.732.045c-.3-1.748-.5-3.662-.777-6.024a2.845,2.845,0,0,1-.379.044,2.675,2.675,0,0,1-.37-.044c-.671,1.5-1.422,2.881-2.057,4.127Zm5.976-1.009h.927c.353,0,.707.043,1.077.079a1.632,1.632,0,0,1,0-.755,9.219,9.219,0,0,1-1.068.08h-.936V444.38a16.214,16.214,0,0,1,2.039.123,1.632,1.632,0,0,1,0-.755h-3.364v6.024c.221-.018.441-.045.662-.045s.441.027.662.045v-2.907Zm22.567-3.117v5.979h3.364a1.656,1.656,0,0,1,0-.755,16.333,16.333,0,0,1-2.039.122v-2.23h.917a8.1,8.1,0,0,1,1.086.079,1.657,1.657,0,0,1,0-.755,8.1,8.1,0,0,1-1.086.08h-.917V444.38a12.511,12.511,0,0,1,2.039.123,1.659,1.659,0,0,1,0-.755Zm-12.08,6.024c.221-.018.441-.045.662-.045s.441.027.661.045v-2.82h.063c.195.334,1.624,2.82,1.624,2.82.264-.018.53-.045.795-.045s.538.027.8.045c0,0-1.42-2.169-1.906-3.012a1.572,1.572,0,0,0,1.376-1.58c0-1.511-1.7-1.432-2.2-1.432H299.1v6.024Zm1.324-5.55c.539,0,1.4-.133,1.387,1.1-.011.9-.46,1.344-1.387,1.255v-2.353Zm15.146,5.55c.22-.018.44-.045.662-.045s.441.027.663.045v-2.82h.062c.2.334,1.624,2.82,1.624,2.82.266-.018.53-.045.795-.045s.538.027.8.045c0,0-1.421-2.169-1.906-3.012a1.572,1.572,0,0,0,1.376-1.58c0-1.511-1.7-1.432-2.2-1.432h-1.88v6.024Zm1.324-5.55c.538,0,1.4-.133,1.386,1.1-.011.9-.46,1.344-1.386,1.255v-2.353Zm-12.318-.472h2.47a3,3,0,1,1,0,5.977h-2.47Zm1.323,5.468h.751c1.181,0,2.173-.656,2.173-2.48s-1-2.479-2.173-2.479H305.9Zm-11.506-6.6a.573.573,0,0,0-.574-.572h0a.573.573,0,0,0-.575.572h0a.573.573,0,0,0,.575.572h0a.573.573,0,0,0,.574-.572Zm1.847,0a.573.573,0,0,1-.575.572h0a.573.573,0,0,1-.575-.572h0a.573.573,0,0,1,.575-.572h0a.573.573,0,0,1,.575.572Zm1.9,4.12a3.379,3.379,0,1,1-3.371-3.148A3.265,3.265,0,0,1,298.146,446.738Zm-1.455,0c0-1.443-.824-2.613-1.917-2.613s-1.917,1.17-1.917,2.613.824,2.613,1.917,2.613S296.692,448.179,296.692,446.736Z" transform="translate(-270.588 -442.046)" fill="#fff"/>
        </g>
        <path id="Caminho_422" data-name="Caminho 422" d="M363.553,444.873a2.979,2.979,0,0,1,1.9.753,4.1,4.1,0,0,1-3.8,0,2.983,2.983,0,0,1,1.9-.753m3.672.688-3.672-6.361-3.674,6.361a7.02,7.02,0,0,0,7.347,0m-3.672-8.688L381.931,468.7h-15.9v1.791h-1.745v-2.913l.884-1.43.861,1.43a1.766,1.766,0,0,0,.463-1.161,1.83,1.83,0,0,0-.173-.811H378.8l-10.862-18.812c-1.147.273-4,.721-4,3.868h-.782c0-3.148-2.85-3.6-3.991-3.868h0l-10.86,18.812h12.474a1.83,1.83,0,0,0-.173.811,1.785,1.785,0,0,0,.459,1.161l.865-1.43.884,1.43v2.913H361.07V468.7H345.176Zm-2.792,11.338c1.161.1,1.874,1.038,1.953,2.452a2.192,2.192,0,0,1-1.953-2.452m-1.082,1.755a2.216,2.216,0,0,1,.484-1.426,2.62,2.62,0,0,0,1.768,2.542c.234.1.167.317-.019.5a1.134,1.134,0,0,1-.775.29,1.728,1.728,0,0,1-1.459-1.91m1.441,7.21a49.07,49.07,0,0,0,.88,7.695h-.832a24.69,24.69,0,0,1-1.764-3.334,14.07,14.07,0,0,1-1.466-5.575c0-1.359.728-3.711,2.285-3.711,1.666,0,.9,1.879.9,4.925m3.392,8.431-.959,1.547-.955-1.547Zm-.117-14.943c.079-1.414.794-2.354,1.952-2.452a2.193,2.193,0,0,1-1.952,2.452m.782.419a2.612,2.612,0,0,0,1.764-2.542,2.2,2.2,0,0,1,.49,1.426,1.731,1.731,0,0,1-1.46,1.91,1.137,1.137,0,0,1-.775-.29c-.186-.186-.254-.405-.019-.5m.809,6.094c0-3.046-.769-4.925.9-4.925,1.555,0,2.285,2.352,2.285,3.711a14.069,14.069,0,0,1-1.466,5.575,24.685,24.685,0,0,1-1.764,3.334h-.832a49.172,49.172,0,0,0,.878-7.695m16.836,12.042-19.269-33.375-19.267,33.375h16.271v1.789h5.994v-1.789Z" transform="translate(-338.928 -435.843)" fill="#fff"/>
      </g>
    </g>
    <rect id="Retângulo_134" data-name="Retângulo 134" width="82" height="82" rx="8" transform="translate(844 1331)" fill="#f1f4f6"/>
    <rect id="Retângulo_135" data-name="Retângulo 135" width="82" height="82" rx="8" transform="translate(942 1429)" fill="#f1f4f6"/>
    <rect id="Retângulo_133" data-name="Retângulo 133" width="82" height="82" rx="8" transform="translate(1040 1625)" fill="#f1f4f6"/>
    <g id="Grupo_791" data-name="Grupo 791" transform="translate(-2239 55)">
      <rect id="Retângulo_137" data-name="Retângulo 137" width="82" height="82" rx="8" transform="translate(3181 1080)" fill="#f1f4f6"/>
      <g id="Grupo_784" data-name="Grupo 784" transform="translate(3036.525 940.59)">
        <path id="Caminho_118-2" data-name="Caminho 118" d="M204,259.07h-6.783v-3.124H173.78v3.127h-6.818c0-1.49.044-2.966-.024-4.437a2.521,2.521,0,0,0-.526-1.444c-2.862-3.306-2.768-10.757,1.747-13.474a2,2,0,0,0,.676-1.24,14.1,14.1,0,0,1,2.793-6.293,6.3,6.3,0,0,1,5.075-2.517q8.778.015,17.556,0a6.333,6.333,0,0,1,5.809,3.586,46.31,46.31,0,0,1,2.057,5.33,2.48,2.48,0,0,0,.754,1.209c4.438,2.714,4.438,10.037,1.8,13.232a3.4,3.4,0,0,0-.651,1.831C203.933,256.226,204,257.6,204,259.07Zm-4.1-20.4a11.693,11.693,0,0,0-2.327-5.149,4.235,4.235,0,0,0-3.376-1.693c-5.809.011-11.619-.033-17.427.045a4.538,4.538,0,0,0-2.581.9,9.552,9.552,0,0,0-3.121,5.809h18.89c.99-3.109,2.214-4.312,4.469-4.273,2.751.047,4.067,1.694,4.458,4.264Zm-25.349,8.515a2.745,2.745,0,0,0-2.852-2.658,2.663,2.663,0,0,0-2.607,2.659,2.729,2.729,0,1,0,5.459,0Zm24.614-2.658a2.772,2.772,0,0,0-2.717,2.693,2.888,2.888,0,0,0,2.738,2.718,2.764,2.764,0,0,0,2.666-2.845A2.664,2.664,0,0,0,199.17,244.526Zm-13.691,1.307c-2.539,0-5.078-.019-7.616.023-.347.006-.689.322-1.034.494.349.2.7.582,1.047.585q7.617.058,15.234,0c.345,0,.688-.322,1.033-.494-.349-.2-.694-.578-1.046-.585C190.558,245.809,188.018,245.833,185.479,245.833Zm.005,3.571v0c2.5,0,5.006.023,7.508-.025.381-.007.756-.346,1.133-.532-.362-.2-.722-.574-1.086-.576q-7.563-.057-15.126,0c-.368,0-.734.35-1.1.537.387.2.771.559,1.163.567C180.479,249.429,182.982,249.4,185.485,249.4Zm11.7-10.846a2.643,2.643,0,0,0-2.606-2.75,2.711,2.711,0,0,0-2.88,2.75Z" transform="translate(0 -56.451)" fill="#b6c7d1"/>
        <path id="Caminho_119" data-name="Caminho 119" d="M209.185,160.545c-1.186,0-2.23-.019-3.272,0a2.268,2.268,0,0,0-2.518,2.362,2.3,2.3,0,0,0,2.5,2.288c.544.016,1.089,0,1.634,0a4.67,4.67,0,0,1,1.724.249,13.4,13.4,0,0,1-1.782,1.867,5.368,5.368,0,0,1-7.324-1,1.752,1.752,0,0,0-1.182-.524q-10.568-.047-21.136.009a3.387,3.387,0,0,0-1.609.712,4.483,4.483,0,0,1-5.592-.526,4.542,4.542,0,0,1-.49-5.686c1.191-1.7,3.7-2.585,5.382-1.4,1.742,1.229,3.516,1.057,5.359,1.061,5.92.015,11.839,0,17.759.016a1.915,1.915,0,0,0,1.664-.738A5.33,5.33,0,0,1,209.185,160.545Zm-35.456.435a2.262,2.262,0,0,0-2.077,1.873,2.317,2.317,0,0,0,2.145,1.915,2.5,2.5,0,0,0,2.131-1.869C175.965,162.1,174.678,160.979,173.728,160.98Z" transform="translate(-3.818)" fill="#b6c7d1"/>
      </g>
    </g>
    <g id="Grupo_793" data-name="Grupo 793" transform="translate(-2337 349)">
      <rect id="Retângulo_137-2" data-name="Retângulo 137" width="82" height="82" rx="8" transform="translate(3181 1080)" fill="#f1f4f6"/>
      <g id="Grupo_784-2" data-name="Grupo 784" transform="translate(3036.525 940.59)">
        <path id="Caminho_118-3" data-name="Caminho 118" d="M204,259.07h-6.783v-3.124H173.78v3.127h-6.818c0-1.49.044-2.966-.024-4.437a2.521,2.521,0,0,0-.526-1.444c-2.862-3.306-2.768-10.757,1.747-13.474a2,2,0,0,0,.676-1.24,14.1,14.1,0,0,1,2.793-6.293,6.3,6.3,0,0,1,5.075-2.517q8.778.015,17.556,0a6.333,6.333,0,0,1,5.809,3.586,46.31,46.31,0,0,1,2.057,5.33,2.48,2.48,0,0,0,.754,1.209c4.438,2.714,4.438,10.037,1.8,13.232a3.4,3.4,0,0,0-.651,1.831C203.933,256.226,204,257.6,204,259.07Zm-4.1-20.4a11.693,11.693,0,0,0-2.327-5.149,4.235,4.235,0,0,0-3.376-1.693c-5.809.011-11.619-.033-17.427.045a4.538,4.538,0,0,0-2.581.9,9.552,9.552,0,0,0-3.121,5.809h18.89c.99-3.109,2.214-4.312,4.469-4.273,2.751.047,4.067,1.694,4.458,4.264Zm-25.349,8.515a2.745,2.745,0,0,0-2.852-2.658,2.663,2.663,0,0,0-2.607,2.659,2.729,2.729,0,1,0,5.459,0Zm24.614-2.658a2.772,2.772,0,0,0-2.717,2.693,2.888,2.888,0,0,0,2.738,2.718,2.764,2.764,0,0,0,2.666-2.845A2.664,2.664,0,0,0,199.17,244.526Zm-13.691,1.307c-2.539,0-5.078-.019-7.616.023-.347.006-.689.322-1.034.494.349.2.7.582,1.047.585q7.617.058,15.234,0c.345,0,.688-.322,1.033-.494-.349-.2-.694-.578-1.046-.585C190.558,245.809,188.018,245.833,185.479,245.833Zm.005,3.571v0c2.5,0,5.006.023,7.508-.025.381-.007.756-.346,1.133-.532-.362-.2-.722-.574-1.086-.576q-7.563-.057-15.126,0c-.368,0-.734.35-1.1.537.387.2.771.559,1.163.567C180.479,249.429,182.982,249.4,185.485,249.4Zm11.7-10.846a2.643,2.643,0,0,0-2.606-2.75,2.711,2.711,0,0,0-2.88,2.75Z" transform="translate(0 -56.451)" fill="#b6c7d1"/>
        <path id="Caminho_119-2" data-name="Caminho 119" d="M209.185,160.545c-1.186,0-2.23-.019-3.272,0a2.268,2.268,0,0,0-2.518,2.362,2.3,2.3,0,0,0,2.5,2.288c.544.016,1.089,0,1.634,0a4.67,4.67,0,0,1,1.724.249,13.4,13.4,0,0,1-1.782,1.867,5.368,5.368,0,0,1-7.324-1,1.752,1.752,0,0,0-1.182-.524q-10.568-.047-21.136.009a3.387,3.387,0,0,0-1.609.712,4.483,4.483,0,0,1-5.592-.526,4.542,4.542,0,0,1-.49-5.686c1.191-1.7,3.7-2.585,5.382-1.4,1.742,1.229,3.516,1.057,5.359,1.061,5.92.015,11.839,0,17.759.016a1.915,1.915,0,0,0,1.664-.738A5.33,5.33,0,0,1,209.185,160.545Zm-35.456.435a2.262,2.262,0,0,0-2.077,1.873,2.317,2.317,0,0,0,2.145,1.915,2.5,2.5,0,0,0,2.131-1.869C175.965,162.1,174.678,160.979,173.728,160.98Z" transform="translate(-3.818)" fill="#b6c7d1"/>
      </g>
    </g>
    <g id="Grupo_789" data-name="Grupo 789" transform="translate(-2406 55)">
      <rect id="Retângulo_139-2" data-name="Retângulo 139" width="82" height="82" rx="8" transform="translate(3446 1080)" fill="#f1f4f6"/>
      <g id="Grupo_786-2" data-name="Grupo 786" transform="translate(2602.118 944.843)">
        <path id="Caminho_121-3" data-name="Caminho 121" d="M901.716,188.493a3.191,3.191,0,0,1-.39.9c-1.085,1.12-2.149,2.272-3.33,3.284-.713.611-1.448.257-2.135-.344a4.441,4.441,0,0,0-7.246,1.778,4.39,4.39,0,0,0-.257,1.379c-.034,1.058-.505,1.63-1.6,1.626-1.308,0-2.616.005-3.924-.009-1.018-.011-1.472-.518-1.533-1.559a4.487,4.487,0,0,0-3.828-4.49,4.556,4.556,0,0,0-3.73,1.157c-1.074.908-1.463.92-2.522-.03a29.652,29.652,0,0,1-2.309-2.3c-1.135-1.271-1.116-1.589-.058-2.858a4.212,4.212,0,0,0,.375-5.23,4.506,4.506,0,0,0-3.608-2.143c-1.342-.1-1.639-.4-1.7-1.737-.053-1.155-.054-2.315,0-3.47.074-1.576.227-1.7,1.782-1.851a4.675,4.675,0,0,0,4.3-3.842,3.978,3.978,0,0,0-.987-3.433c-1.131-1.309-1.191-1.6-.079-2.856a27.016,27.016,0,0,1,2.793-2.733c.771-.651,1.513-.311,2.229.312a4.457,4.457,0,0,0,7.392-2.327c.009-.035.024-.069.031-.1.526-2.437.526-2.448,3.073-2.457.8,0,1.6.061,2.4.11,1.3.08,1.561.344,1.658,1.639a4.548,4.548,0,0,0,3.9,4.429,4.231,4.231,0,0,0,3.358-.967c1.432-1.186,1.613-1.244,3.043,0a25.031,25.031,0,0,1,2.569,2.658c.684.8.265,1.54-.324,2.23a4.332,4.332,0,0,0,1.258,6.9,6.554,6.554,0,0,0,2.082.551c.926.132,1.494.512,1.488,1.516-.008,1.374.011,2.749-.012,4.123-.016.977-.55,1.428-1.531,1.434a4.375,4.375,0,0,0-4.21,2.752,4.123,4.123,0,0,0,.889,4.819A6.342,6.342,0,0,1,901.716,188.493Zm-5.361-5.2a13.23,13.23,0,0,0-2.247-17.281c-5.764-5.009-13.4-4.791-18.627.29A13.532,13.532,0,0,0,892.2,187.414c-1.927-1.934-3.832-3.88-5.792-5.769-.241-.232-.777-.215-1.177-.217a19.07,19.07,0,0,1-3.992,0c-3.866-.873-6.041-4.366-5.467-8.514.061-.441.355-1.121.659-1.193a1.907,1.907,0,0,1,1.436.451c.939.8,1.771,1.723,2.655,2.588.6.588,2.824.63,3.314.075a3.337,3.337,0,0,0-.125-3.329c-.9-.9-1.836-1.769-2.682-2.717a1.637,1.637,0,0,1-.4-1.232c.06-.283.595-.594.963-.666a7.438,7.438,0,0,1,8.812,9.33,1.666,1.666,0,0,0,.277,1.339C892.513,179.487,894.411,181.344,896.355,183.292Z" transform="translate(0 0)" fill="#b6c7d1"/>
      </g>
    </g>
    <g id="Grupo_796" data-name="Grupo 796" transform="translate(-2700 447)">
      <rect id="Retângulo_139-3" data-name="Retângulo 139" width="82" height="82" rx="8" transform="translate(3446 1080)" fill="#f1f4f6"/>
      <g id="Grupo_786-3" data-name="Grupo 786" transform="translate(2602.118 944.843)">
        <path id="Caminho_121-4" data-name="Caminho 121" d="M901.716,188.493a3.191,3.191,0,0,1-.39.9c-1.085,1.12-2.149,2.272-3.33,3.284-.713.611-1.448.257-2.135-.344a4.441,4.441,0,0,0-7.246,1.778,4.39,4.39,0,0,0-.257,1.379c-.034,1.058-.505,1.63-1.6,1.626-1.308,0-2.616.005-3.924-.009-1.018-.011-1.472-.518-1.533-1.559a4.487,4.487,0,0,0-3.828-4.49,4.556,4.556,0,0,0-3.73,1.157c-1.074.908-1.463.92-2.522-.03a29.652,29.652,0,0,1-2.309-2.3c-1.135-1.271-1.116-1.589-.058-2.858a4.212,4.212,0,0,0,.375-5.23,4.506,4.506,0,0,0-3.608-2.143c-1.342-.1-1.639-.4-1.7-1.737-.053-1.155-.054-2.315,0-3.47.074-1.576.227-1.7,1.782-1.851a4.675,4.675,0,0,0,4.3-3.842,3.978,3.978,0,0,0-.987-3.433c-1.131-1.309-1.191-1.6-.079-2.856a27.016,27.016,0,0,1,2.793-2.733c.771-.651,1.513-.311,2.229.312a4.457,4.457,0,0,0,7.392-2.327c.009-.035.024-.069.031-.1.526-2.437.526-2.448,3.073-2.457.8,0,1.6.061,2.4.11,1.3.08,1.561.344,1.658,1.639a4.548,4.548,0,0,0,3.9,4.429,4.231,4.231,0,0,0,3.358-.967c1.432-1.186,1.613-1.244,3.043,0a25.031,25.031,0,0,1,2.569,2.658c.684.8.265,1.54-.324,2.23a4.332,4.332,0,0,0,1.258,6.9,6.554,6.554,0,0,0,2.082.551c.926.132,1.494.512,1.488,1.516-.008,1.374.011,2.749-.012,4.123-.016.977-.55,1.428-1.531,1.434a4.375,4.375,0,0,0-4.21,2.752,4.123,4.123,0,0,0,.889,4.819A6.342,6.342,0,0,1,901.716,188.493Zm-5.361-5.2a13.23,13.23,0,0,0-2.247-17.281c-5.764-5.009-13.4-4.791-18.627.29A13.532,13.532,0,0,0,892.2,187.414c-1.927-1.934-3.832-3.88-5.792-5.769-.241-.232-.777-.215-1.177-.217a19.07,19.07,0,0,1-3.992,0c-3.866-.873-6.041-4.366-5.467-8.514.061-.441.355-1.121.659-1.193a1.907,1.907,0,0,1,1.436.451c.939.8,1.771,1.723,2.655,2.588.6.588,2.824.63,3.314.075a3.337,3.337,0,0,0-.125-3.329c-.9-.9-1.836-1.769-2.682-2.717a1.637,1.637,0,0,1-.4-1.232c.06-.283.595-.594.963-.666a7.438,7.438,0,0,1,8.812,9.33,1.666,1.666,0,0,0,.277,1.339C892.513,179.487,894.411,181.344,896.355,183.292Z" transform="translate(0 0)" fill="#b6c7d1"/>
      </g>
    </g>
    <g id="Grupo_792" data-name="Grupo 792" transform="translate(-2602 153)">
      <rect id="Retângulo_139-4" data-name="Retângulo 139" width="82" height="82" rx="8" transform="translate(3446 1080)" fill="#f1f4f6"/>
      <g id="Grupo_786-4" data-name="Grupo 786" transform="translate(2602.118 944.843)">
        <path id="Caminho_121-5" data-name="Caminho 121" d="M901.716,188.493a3.191,3.191,0,0,1-.39.9c-1.085,1.12-2.149,2.272-3.33,3.284-.713.611-1.448.257-2.135-.344a4.441,4.441,0,0,0-7.246,1.778,4.39,4.39,0,0,0-.257,1.379c-.034,1.058-.505,1.63-1.6,1.626-1.308,0-2.616.005-3.924-.009-1.018-.011-1.472-.518-1.533-1.559a4.487,4.487,0,0,0-3.828-4.49,4.556,4.556,0,0,0-3.73,1.157c-1.074.908-1.463.92-2.522-.03a29.652,29.652,0,0,1-2.309-2.3c-1.135-1.271-1.116-1.589-.058-2.858a4.212,4.212,0,0,0,.375-5.23,4.506,4.506,0,0,0-3.608-2.143c-1.342-.1-1.639-.4-1.7-1.737-.053-1.155-.054-2.315,0-3.47.074-1.576.227-1.7,1.782-1.851a4.675,4.675,0,0,0,4.3-3.842,3.978,3.978,0,0,0-.987-3.433c-1.131-1.309-1.191-1.6-.079-2.856a27.016,27.016,0,0,1,2.793-2.733c.771-.651,1.513-.311,2.229.312a4.457,4.457,0,0,0,7.392-2.327c.009-.035.024-.069.031-.1.526-2.437.526-2.448,3.073-2.457.8,0,1.6.061,2.4.11,1.3.08,1.561.344,1.658,1.639a4.548,4.548,0,0,0,3.9,4.429,4.231,4.231,0,0,0,3.358-.967c1.432-1.186,1.613-1.244,3.043,0a25.031,25.031,0,0,1,2.569,2.658c.684.8.265,1.54-.324,2.23a4.332,4.332,0,0,0,1.258,6.9,6.554,6.554,0,0,0,2.082.551c.926.132,1.494.512,1.488,1.516-.008,1.374.011,2.749-.012,4.123-.016.977-.55,1.428-1.531,1.434a4.375,4.375,0,0,0-4.21,2.752,4.123,4.123,0,0,0,.889,4.819A6.342,6.342,0,0,1,901.716,188.493Zm-5.361-5.2a13.23,13.23,0,0,0-2.247-17.281c-5.764-5.009-13.4-4.791-18.627.29A13.532,13.532,0,0,0,892.2,187.414c-1.927-1.934-3.832-3.88-5.792-5.769-.241-.232-.777-.215-1.177-.217a19.07,19.07,0,0,1-3.992,0c-3.866-.873-6.041-4.366-5.467-8.514.061-.441.355-1.121.659-1.193a1.907,1.907,0,0,1,1.436.451c.939.8,1.771,1.723,2.655,2.588.6.588,2.824.63,3.314.075a3.337,3.337,0,0,0-.125-3.329c-.9-.9-1.836-1.769-2.682-2.717a1.637,1.637,0,0,1-.4-1.232c.06-.283.595-.594.963-.666a7.438,7.438,0,0,1,8.812,9.33,1.666,1.666,0,0,0,.277,1.339C892.513,179.487,894.411,181.344,896.355,183.292Z" transform="translate(0 0)" fill="#b6c7d1"/>
      </g>
    </g>
    <g id="Grupo_790" data-name="Grupo 790" transform="translate(-2564 153)">
      <rect id="Retângulo_138-2" data-name="Retângulo 138" width="82" height="82" rx="8" transform="translate(3310 1080)" fill="#f1f4f6"/>
      <g id="Grupo_785-2" data-name="Grupo 785" transform="translate(2816.027 952)">
        <path id="Caminho_120-3" data-name="Caminho 120" d="M534.428,181.046c2.5,2.5,4.939,4.93,7.376,7.368.875.876,1.031,1.93.391,2.575a1.908,1.908,0,0,1-2.623-.325c-2.239-2.227-4.472-4.46-6.676-6.722a1.006,1.006,0,0,0-1.553-.15,11.321,11.321,0,0,1-16.361-14.211,1.726,1.726,0,0,0,0-1.7c-1.723-3.5-1.236-8.32,1.413-10.631a7.869,7.869,0,0,0,2.468-4.3,9.258,9.258,0,0,1,3.688-5.718,6.713,6.713,0,0,1,3.287-1.155c6.089-.11,12.181-.059,18.272-.05a5.976,5.976,0,0,1,4.66,2.412,14.453,14.453,0,0,1,2.844,6.388,2.6,2.6,0,0,0,.94,1.424c3.606,2.585,4.6,9.065,1.81,12.759a4.052,4.052,0,0,0-.921,2.875c.071,1.149.016,2.305.016,3.514H546.67v-3.213H536.592A12.032,12.032,0,0,1,534.428,181.046Zm-9.08,1.912a8.852,8.852,0,1,0-8.841-8.9A8.944,8.944,0,0,0,525.348,182.958Zm23.975-28.06a11.545,11.545,0,0,0-2.044-4.7,4.832,4.832,0,0,0-4.186-2.054c-5.5.065-11.011.042-16.517.01a4.363,4.363,0,0,0-3.227,1.286,10.484,10.484,0,0,0-2.717,5.453Zm1.925,8.687a2.746,2.746,0,0,0-2.661-2.735,2.875,2.875,0,0,0-2.649,2.681,2.764,2.764,0,0,0,2.7,2.7A2.679,2.679,0,0,0,551.249,163.584Zm-24.891-1.166.074.425a30.584,30.584,0,0,0,3.513.439c4.051.055,8.1.021,12.155.021a3.048,3.048,0,0,0,.862-.026,2.473,2.473,0,0,0,.644-.456,4.476,4.476,0,0,0-.615-.637c-.124-.088-.351-.038-.531-.038-4.992,0-9.984-.007-14.977.011A5.093,5.093,0,0,0,526.358,162.418Zm5.384,2.184a2.836,2.836,0,0,0,2.507,1.217c.932-.089,1.88-.018,2.82-.019,1.881,0,3.763.024,5.643-.028.306-.009.6-.358.9-.55-.236-.207-.47-.591-.708-.594C539.232,164.591,535.557,164.6,531.742,164.6Zm-7.938-1.947a2.609,2.609,0,0,0-2.422-1.793,2.507,2.507,0,0,0-2.4,1.4,2.062,2.062,0,0,0-.094,2.279Z" transform="translate(0)" fill="#b6c7d1"/>
      </g>
    </g>
    <g id="Grupo_788" data-name="Grupo 788" transform="translate(-2640 251)">
      <rect id="Retângulo_140-2" data-name="Retângulo 140" width="82" height="82" rx="8" transform="translate(3582 1080)" fill="#f1f4f6"/>
      <g id="Grupo_787-2" data-name="Grupo 787" transform="translate(3111.169 554.966)">
        <path id="Caminho_122-3" data-name="Caminho 122" d="M530.284,588.352h-6.742V585.18H500.125v3.139h-6.809c0-1.353-.029-2.716.011-4.078a2.834,2.834,0,0,0-.706-2.061C489.967,579.006,490,571.755,494.5,569a2.032,2.032,0,0,0,.691-1.233c.613-2.858,1.631-5.491,3.929-7.444a5.9,5.9,0,0,1,4.007-1.4c2.277.019,4.554,0,6.95,0,0-2.841.007-5.552,0-8.265a7.386,7.386,0,0,1,1.371-4.384,7.11,7.11,0,0,1,5.866-3.186c2.754-.075,5.513-.067,8.268-.007a7.464,7.464,0,0,1,7.209,7.391c.048,2.687.083,5.379-.024,8.063-.132,3.3-1.917,5.516-4.95,6.847.233.976.436,1.96.718,2.921a1.4,1.4,0,0,0,.6.7c4.559,2.778,4.459,10.254,1.754,13.388a2.909,2.909,0,0,0-.576,1.642C530.23,585.434,530.284,586.844,530.284,588.352Zm-8.946-43.174v.007c-1.34,0-2.687-.079-4.02.017a5.385,5.385,0,0,0-5.1,5.023,72.444,72.444,0,0,0-.015,8.266,5.439,5.439,0,0,0,5.561,5.277c2.427.066,4.86.079,7.286,0a5.62,5.62,0,0,0,5.686-5.894c.025-2.324.029-4.648,0-6.972a5.578,5.578,0,0,0-5.269-5.7C524.1,545.089,522.714,545.178,521.338,545.178Zm-23.929,22.665h28.612c-.132-1.906-.267-2.039-1.989-2.037-2.067,0-4.134.005-6.2,0a7.388,7.388,0,0,1-6.85-4.01,1.249,1.249,0,0,0-1.3-.706c-2.175.019-4.352.026-6.527-.012a4.039,4.039,0,0,0-3.1,1.318A10.746,10.746,0,0,0,497.409,567.843Zm-1.964,8.558a2.734,2.734,0,1,0,5.466.137,2.726,2.726,0,0,0-2.733-2.759A2.639,2.639,0,0,0,495.445,576.4Zm32.7.08a2.745,2.745,0,0,0-2.583-2.7,2.8,2.8,0,0,0-2.8,2.622,2.9,2.9,0,0,0,2.677,2.779A2.771,2.771,0,0,0,528.143,576.481Zm-16.453,2.194v-.016c2.54,0,5.08.023,7.619-.025.377-.007.747-.346,1.121-.531-.359-.2-.717-.569-1.078-.572q-7.564-.058-15.129,0c-.364,0-.726.357-1.088.547.385.2.766.565,1.155.573C506.756,578.7,509.224,578.675,511.691,578.675Zm.117-2.455v0c2.534,0,5.068.021,7.6-.025.338-.006.67-.353,1.006-.542-.34-.186-.678-.533-1.019-.535q-7.6-.054-15.2-.006c-.347,0-.693.328-1.039.5.35.2.7.576,1.052.583C506.739,576.244,509.273,576.22,511.807,576.22Z" transform="translate(0)" fill="#b6c7d1"/>
        <path id="Caminho_123-3" data-name="Caminho 123" d="M600.731,584.073c2.554-2.559,4.97-4.963,7.362-7.389.595-.6,1.255-1.048,1.937-.334.62.65.362,1.37-.266,1.992-2.606,2.576-5.19,5.174-7.789,7.757a1.552,1.552,0,0,1-2.443.012q-1.97-1.955-3.922-3.928c-.561-.566-1.1-1.254-.371-1.955s1.432-.3,2.053.351C598.387,581.731,599.519,582.846,600.731,584.073Z" transform="translate(-81.346 -25.741)" fill="#b6c7d1"/>
      </g>
    </g>
  </g>
</svg>
